# xmcd
#
# Track frame offsets:
#       150
#       17970
#       36000
#       53265
#       70507
#       88395
#       104660
#       117525
#       136302
#       168662
#       183010
#
# Disc length: 2652 seconds
#
# Revision: 0
# Processed by: cddbd v1.4PL0 Copyright (c) Steve Scherf et al.
# Submitted via: CD-DA_X-Tractor v0.21
#
DISCID=920a5a0b
DTITLE=Lydia Warren - the Lydia Warren band
DYEAR=1900
DGENRE=
TTITLE0=Nothing Without You
TTITLE1=Quit While You're Ahead
TTITLE2=It's No Sin
TTITLE3=Love Me
TTITLE4=Have To Have
TTITLE5=Early In The Morning
TTITLE6=Getting Late
TTITLE7=If You Say So
TTITLE8=Oh My God
TTITLE9=Give YourSelf Up
TTITLE10=Every Night About This Time
EXTD=
EXTT0=
EXTT1=
EXTT2=
EXTT3=
EXTT4=
EXTT5=
EXTT6=
EXTT7=
EXTT8=
EXTT9=
EXTT10=
PLAYORDER=
